<svg xmlns="http://www.w3.org/2000/svg" version="1.1" xmlns:xlink="http://www.w3.org/1999/xlink" xmlns:svgjs="http://svgjs.dev/svgjs" width="2000" height="2409" viewBox="0 0 2000 2409"><g transform="matrix(1,0,0,1,1.1402852497096774,0.9771046587420642)"><svg viewBox="0 0 205 247" data-background-color="#ffffff" preserveAspectRatio="xMidYMid meet" height="2409" width="2000" xmlns="http://www.w3.org/2000/svg" xmlns:xlink="http://www.w3.org/1999/xlink"><g id="tight-bounds" transform="matrix(1,0,0,1,-0.11687923809523681,-0.09997365579206985)"><svg viewBox="0 0 205.23375847619047 247.2" height="247.2" width="205.23375847619047"><g><svg viewBox="0 0 205.23375847619047 247.2" height="247.2" width="205.23375847619047"><g><svg viewBox="0 0 205.23375847619047 247.2" height="247.2" width="205.23375847619047"><g id="textblocktransform"><svg viewBox="0 0 205.23375847619047 247.2" height="247.2" width="205.23375847619047" id="textblock"><g><svg viewBox="0 0 205.23375847619047 247.2" height="247.2" width="205.23375847619047"><path d="M204.753 53.02C203.788 27.36 201.039 20.227 201.039 20.227 192.596-6.202 182.06-0.506 172.595 3.292 155.884 3.446 139.24 9.091 122.568 12.119 87.572 12.581 52.278 4.986 17.457 23.717 14.186 29.464-3.393 24.846 0.582 56.304 1.624 69.39 5.425 83.913 5.31 95.922 5.831 98.026 6.554 93.202 6.863 96.23 7.944 104.39 9.709 100.541 11.157 105.365 9.14 118.246 10.587 128.971 11.967 140.21 9.536 143.135 6.419 141.749 5.02 151.449 4.875 158.479 4.094 157.145 3.235 156.837 2.608 156.632 1.344 157.402 1.556 159.608 2.28 167.152-0.827 171.514 1.122 178.904-0.219 186.91 2.048 193.838 1.74 202.511 1.701 204.255 1.913 205.744 2.251 206.154 3.746 208.361 1.566 212.672 1.798 217.342 17.139 249.262 33.782 227.195 49.5 241.872 53.581 231.608 50.513 245.516 52.143 243.36 53.417 240.846 54.343 251.263 55.781 245.362 56.003 243.668 55.665 239.665 56.456 240.435 56.871 240.846 57.238 240.743 57.296 238.382 57.382 234.841 56.62 237.048 56.418 235.201 58.608 225.861 58.067 248.081 60.123 247.158 60.026 244.438 59.428 240.538 60.653 241.051 61.869 237.151 61.908 233.918 62.988 242.693 63.027 244.592 63.22 245.926 63.528 246.85 66.905 237.305 70.263 250.237 73.804 245.926 75.975 241.205 78.059 248.492 80.259 246.696 81.031 245.259 81.812 242.693 82.555 247.004 91.654 247.928 101.351 244.079 109.976 247.158 133.026 241.41 157.659 249.518 181.964 241.923 187.695 238.998 193.648 234.841 199.234 231.506 199.234 231.506 203.759 222.371 203.759 181.316S204.724 145.393 204.869 112.703C205.014 80.013 205.689 78.679 204.724 53.02Z" opacity="1" fill="#ed2647" data-fill-palette-color="tertiary"></path><g transform="matrix(1,0,0,1,55.768319999999996,26.230666666666668)"><svg width="93.69711847619048" viewBox="1.05 -43.35 21.05 43.75" height="194.73866666666666" data-palette-color="#ffffff"><path d="M12.1 0.4Q6.25 0.4 3.65-2.5 1.05-5.4 1.05-11.85L1.05-11.85 1.05-16.05 9.5-16.05 9.5-10.7Q9.5-7.5 11.55-7.5L11.55-7.5Q12.7-7.5 13.15-8.18 13.6-8.85 13.6-10.45L13.6-10.45Q13.6-12.55 13.1-13.93 12.6-15.3 11.83-16.23 11.05-17.15 9.05-19.1L9.05-19.1 5.35-22.8Q1.05-27 1.05-32.1L1.05-32.1Q1.05-37.6 3.58-40.48 6.1-43.35 10.95-43.35L10.95-43.35Q16.75-43.35 19.3-40.28 21.85-37.2 21.85-30.65L21.85-30.65 13.1-30.65 13.05-33.6Q13.05-34.45 12.58-34.95 12.1-35.45 11.25-35.45L11.25-35.45Q10.25-35.45 9.75-34.9 9.25-34.35 9.25-33.4L9.25-33.4Q9.25-31.3 11.65-29.05L11.65-29.05 16.65-24.25Q18.4-22.55 19.55-21.03 20.7-19.5 21.4-17.43 22.1-15.35 22.1-12.5L22.1-12.5Q22.1-6.15 19.78-2.88 17.45 0.4 12.1 0.4L12.1 0.4Z" opacity="1" transform="matrix(1,0,0,1,0,0)" fill="#ffffff" class="wordmark-text-0" data-fill-palette-color="quaternary" id="text-0"></path></svg></g></svg></g></svg></g></svg></g><g></g></svg></g><defs></defs></svg><rect width="205.23375847619047" height="247.2" fill="none" stroke="none" visibility="hidden"></rect></g></svg></g></svg>